<?xml version="1.0" encoding="utf-8"?>
<!-- Generator: Adobe Illustrator 27.5.0, SVG Export Plug-In . SVG Version: 6.00 Build 0)  -->
<svg version="1.1" xmlns="http://www.w3.org/2000/svg" xmlns:xlink="http://www.w3.org/1999/xlink" x="0px" y="0px"
	 viewBox="0 0 359.987 359.987" style="enable-background:new 0 0 359.987 359.987;" xml:space="preserve">
<g id="Colors">
	<g>
		<g>
			<g>
				<path style="fill:#D9C9AE;" d="M127.36,148.916l-0.312,19.053c0,0-1.874,9.683-2.186,12.182
					c-0.312,2.499-0.312,14.681-0.312,14.681s1.874,4.685,1.249,6.247s-1.874,14.993-1.874,15.93c0,0.937-3.436,29.049-3.436,29.049
					s-1.874,19.366-2.187,20.615s-0.625,5.31-0.625,5.31l1.562,6.872l98.703,6.872l20.615-11.557l1.562-34.983l0.937-4.06
					l0.625-48.415l-1.249-46.853l-0.937,4.998l-1.562-2.187l-4.685,1.562l-5.935,1.249l-8.121-1.249l-11.869,0.937l-25.925-2.186
					c0,0-9.995,2.186-11.245,2.186c-1.249,0-10.62,0.625-10.62,0.625l-6.559-0.937c0,0-7.496-0.625-8.433-0.625
					c-0.937,0-6.559,2.186-6.559,2.186l-9.995,1.249L127.36,148.916z"/>
				<polygon style="fill:#B3A690;" points="160.257,259.14 217.279,249.681 218.09,268.869 				"/>
				<polygon style="fill:#B3A690;" points="118.639,271.031 190.795,273.193 120.801,279.138 				"/>
				<polygon style="fill:#B3A690;" points="218.09,246.438 228.9,243.195 219.441,285.624 				"/>
				<path style="fill:#B3A690;" d="M225.657,226.44c0,0,5.412,9.547,14.462,12.746l1.212-1.936l0.54-12.161L225.657,226.44z"/>
				<polygon style="fill:#B3A690;" points="241.872,190.497 230.251,206.712 241.602,202.658 				"/>
				<path style="fill:#B3A690;" d="M194.579,219.954c0,0,25.625-3.464,28.646-6.486c0.54-0.54,1.622-17.836,1.622-17.836
					S210.523,211.306,194.579,219.954z"/>
				<polygon style="fill:#B3A690;" points="124.855,184.011 125.798,201.079 137.286,235.628 146.475,187.254 				"/>
				<path style="fill:#B3A690;" d="M186.603,181.487c0,0,6.864,7.779,19.676,10.524c0,0-7.092-4.347-4.347-5.72
					c2.745-1.373,10.982-4.347,10.982-4.347S195.983,184.232,186.603,181.487z"/>
			</g>
			<path style="fill:#E68A37;" d="M158.611,190.493c-3.675,1.286-5.439,7.156-5.009,11.307c0.429,4.151,2.719,11.45,8.444,11.02
				c0,0,6.87-4.437,5.153-12.022S164.336,188.489,158.611,190.493z"/>
			<path style="fill:#E68A37;" d="M144.012,204.09c-2.309,1.049-2.29,5.868-1.145,8.444c1.145,2.576,2.29,6.584,4.866,7.729
				c2.576,1.145,5.153,0.286,5.296-1.431c0.143-1.717,0.716-5.868-1.431-10.305C149.451,204.09,147.161,202.659,144.012,204.09z"/>
			<path style="fill:#E68A37;" d="M172.494,214.824c-3.874-0.084-7.729,3.435-9.589,7.442c-1.861,4.007-2.29,4.151-2.29,4.151
				s-5.009,3.149-7.586,5.152c-2.576,2.004-4.437,5.009-2.004,8.015s4.437,4.294,7.013,3.864c2.576-0.429,3.149-1.288,3.149-1.288
				s3.149,3.006,7.872,3.006s8.731-2.863,8.731-2.863s1.574,0.429,4.58-0.143c3.006-0.572,5.725-4.294,3.435-9.017
				c-2.29-4.723-5.725-7.156-5.725-7.156S179.077,214.967,172.494,214.824z"/>
			<path style="fill:#E68A37;" d="M178.505,186.343c0,0-7.586-0.143-7.729,9.589s4.58,13.454,5.009,13.454
				c0.429,0,6.441-3.864,7.872-12.023C185.089,189.205,182.942,185.77,178.505,186.343z"/>
			<path style="fill:#E68A37;" d="M196.538,198.651c0,0-6.584-0.429-9.876,8.015c-3.292,8.444-0.429,11.45,1.717,12.166
				c2.147,0.716,8.874-1.288,10.448-8.874C200.403,202.372,200.689,200.798,196.538,198.651z"/>
			<path style="fill:#E68A37;" d="M215.047,74.309c-6.677,0.534-2.17,6.509-2.17,7.322s-3.254,13.017-7.594,18.17
				c-4.339,5.153-14.645,17.628-17.085,21.424c-2.441,3.797-4.61,10.034-4.068,14.102c0.542,4.068,5.424,14.916,5.424,14.916
				l7.865-4.339l3.254,2.712l1.356-2.441c0,0-7.051-10.305-5.424-16.001c1.627-5.695,7.051-14.373,11.662-18.17
				c4.61-3.797,13.017-13.017,14.102-19.797C223.454,85.428,221.826,73.767,215.047,74.309z"/>
		</g>
		<g>
			<g>
				<g>
					<path style="fill:#434244;" d="M125.698,200.224c-0.6-5.538-0.815-11.082-0.452-16.645c0.364-5.561,1.292-11.052,2.565-16.473
						c0.036-0.154-0.21-0.23-0.253-0.08c-3.038,10.687-3.822,22.281-2.403,33.296C125.197,200.639,125.734,200.553,125.698,200.224z
						"/>
				</g>
				<g>
					<path style="fill:#434244;" d="M125.839,201.566c-0.883,7.108-1.749,14.218-2.592,21.33
						c-0.842,7.107-1.808,14.214-2.502,21.336c-0.037,0.377,0.593,0.413,0.642,0.041c0.919-7.094,1.569-14.235,2.339-21.347
						c0.771-7.115,1.519-14.233,2.249-21.353C125.983,201.495,125.848,201.487,125.839,201.566z"/>
				</g>
				<g>
					<path style="fill:#434244;" d="M121.997,245.188c0.02-0.102-0.163-0.131-0.193-0.036c-1.28,4.088-2.019,8.389-2.592,12.627
						c-0.291,2.151-0.522,4.311-0.676,6.476c-0.077,1.082-0.138,2.166-0.182,3.25c-0.043,1.035-0.16,2.121-0.029,3.151
						c0.037,0.29,0.494,0.231,0.534-0.03c0.162-1.057,0.086-2.181,0.128-3.251c0.041-1.027,0.096-2.054,0.166-3.079
						c0.148-2.165,0.348-4.326,0.617-6.479C120.303,253.561,121.194,249.392,121.997,245.188z"/>
				</g>
				<g>
					<path style="fill:#434244;" d="M118.821,278.531c-0.199-1.242-0.615-2.476-0.995-3.673c-0.048-0.151-0.309-0.119-0.274,0.049
						c0.251,1.23,0.492,2.507,0.922,3.687C118.541,278.781,118.855,278.749,118.821,278.531z"/>
				</g>
				<g>
					<path style="fill:#434244;" d="M217.666,284.952c-12.795-0.818-25.59-1.639-38.386-2.446
						c-12.796-0.806-25.592-1.618-38.389-2.403c-7.213-0.442-14.425-0.916-21.643-1.268c-0.321-0.016-0.35,0.429-0.029,0.454
						c12.779,1.024,25.582,1.797,38.374,2.64c12.794,0.842,25.587,1.689,38.382,2.52l21.634,1.405
						C218.246,285.896,218.305,284.993,217.666,284.952z"/>
				</g>
				<g>
					<path style="fill:#434244;" d="M226.747,165.47c0.276-4.516,0.753-9.066,0.822-13.588c0.004-0.28-0.449-0.311-0.478-0.031
						c-0.418,4.038-0.477,8.143-0.709,12.196l-0.689,12.023c-0.463,8.073-0.935,16.146-1.374,24.221
						c-0.229,4.219-0.464,8.437-0.658,12.657c-0.106-0.092-0.309-0.09-0.353,0.066c-0.382,1.352-0.523,2.781-0.746,4.167
						c-0.24,1.488-0.479,2.976-0.719,4.464l-1.466,9.099c-0.848,5.264-1.714,10.525-2.5,15.799c-0.213-0.069-0.479,0.015-0.481,0.28
						c-0.063,6.294,0.13,12.601,0.207,18.895c0.076,6.301,0.134,12.607,0.355,18.904c0.005,0.13,0.223,0.149,0.225,0.015
						c0.12-6.29,0.077-12.587,0.053-18.878c-0.024-6.289,0.068-12.592-0.096-18.879c0.948-5.302,1.813-10.62,2.695-15.933
						c0.494-2.975,0.988-5.95,1.482-8.924c0.247-1.487,0.494-2.975,0.741-4.462c0.199-1.201,0.468-2.42,0.6-3.639
						c0.017-0.001,0.032-0.01,0.034-0.029C224.885,197.765,225.759,181.611,226.747,165.47z"/>
				</g>
				<g>
					<path style="fill:#434244;" d="M127.953,158.178c0.008-3.29,0.155-6.63-0.055-9.914c-0.006-0.097-0.162-0.114-0.171-0.011
						c-0.266,3.275-0.173,6.612-0.22,9.896c-0.047,3.3-0.121,6.601-0.137,9.902c-0.002,0.326,0.553,0.362,0.555,0.036
						C127.964,164.785,127.945,161.48,127.953,158.178z"/>
				</g>
				<g>
					<path style="fill:#434244;" d="M131.704,150c-0.479-0.495-1.09-0.871-1.642-1.278c-0.443-0.326-0.883-0.663-1.34-0.971
						c0.976,0.049,2.012,0.006,2.939-0.107c0.166-0.02,0.137-0.255-0.022-0.262c-1.029-0.045-2.188,0.004-3.238,0.162
						c-0.076-0.048-0.15-0.098-0.227-0.143c-0.093-0.055-0.235,0.055-0.142,0.146c0.018,0.017,0.036,0.033,0.054,0.05
						c-0.059,0.01-0.119,0.019-0.176,0.03c-0.039,0.008-0.032,0.057,0.005,0.061c0.098,0.011,0.2,0.019,0.3,0.028
						c0.444,0.41,0.925,0.78,1.398,1.155c0.594,0.471,1.175,1.02,1.838,1.388C131.618,150.353,131.867,150.168,131.704,150z"/>
				</g>
				<g>
					<path style="fill:#434244;" d="M136.41,147.835c-1.409,0.64-2.786,1.448-4.104,2.259c-0.048,0.029,0.01,0.09,0.054,0.071
						c1.41-0.624,2.859-1.302,4.181-2.099C136.697,147.972,136.569,147.762,136.41,147.835z"/>
				</g>
				<g>
					<path style="fill:#434244;" d="M141.248,151.043c-0.963-1.27-1.962-2.578-3.07-3.726c-0.012-0.012-0.038,0-0.028,0.017
						c0.839,1.355,1.872,2.647,2.868,3.89C141.132,151.365,141.366,151.198,141.248,151.043z"/>
				</g>
				<g>
					<path style="fill:#434244;" d="M148.557,147.09c-1.945,1.054-3.955,2.094-5.797,3.322c-0.037,0.024,0.008,0.071,0.042,0.056
						c2.012-0.915,3.956-2.069,5.876-3.162C148.826,147.221,148.698,147.013,148.557,147.09z"/>
				</g>
				<g>
					<path style="fill:#434244;" d="M153.459,150.561c-1.167-1.137-2.433-2.193-3.704-3.211c-0.024-0.019-0.066,0.006-0.041,0.032
						c1.134,1.153,2.309,2.295,3.551,3.332C153.376,150.808,153.581,150.68,153.459,150.561z"/>
				</g>
				<g>
					<path style="fill:#434244;" d="M161.828,146.729c-2.139,1.255-4.226,2.667-6.251,4.097c-0.047,0.034,0.011,0.103,0.057,0.076
						c2.153-1.239,4.317-2.539,6.358-3.955C162.129,146.853,161.96,146.652,161.828,146.729z"/>
				</g>
				<g>
					<path style="fill:#434244;" d="M168.028,150.208c-1.642-1.092-3.297-2.186-5.01-3.162c-0.029-0.016-0.058,0.019-0.03,0.041
						c1.567,1.19,3.22,2.278,4.866,3.355C168.011,150.545,168.197,150.32,168.028,150.208z"/>
				</g>
				<g>
					<path style="fill:#434244;" d="M176.682,145.643c-1.957,1.344-3.918,2.68-5.822,4.1c-0.068,0.051,0.025,0.127,0.086,0.088
						c2.022-1.267,3.987-2.617,5.958-3.96C177.081,145.75,176.842,145.533,176.682,145.643z"/>
				</g>
				<g>
					<path style="fill:#434244;" d="M186.679,149.568c-2.153-1.595-4.342-3.303-6.68-4.617c-0.049-0.027-0.127,0.03-0.076,0.077
						c1.976,1.818,4.289,3.362,6.479,4.91C186.648,150.112,186.937,149.759,186.679,149.568z"/>
				</g>
				<g>
					<path style="fill:#434244;" d="M196.703,146.873c-1.958,1.025-3.961,2.094-5.771,3.366c-0.036,0.025,0.008,0.071,0.042,0.056
						c2.034-0.896,3.994-2.056,5.894-3.203C197.011,147.006,196.836,146.803,196.703,146.873z"/>
				</g>
				<g>
					<path style="fill:#434244;" d="M201.272,148.907c-0.532-1.015-1.259-1.959-1.945-2.873c-0.018-0.024-0.065-0.01-0.049,0.022
						c0.508,1.01,1.029,2.067,1.695,2.985C201.081,149.19,201.372,149.099,201.272,148.907z"/>
				</g>
				<g>
					<path style="fill:#434244;" d="M207.594,147.284c-1.549,0.767-3.115,1.625-4.548,2.593c-0.037,0.025,0.008,0.071,0.042,0.056
						c1.592-0.695,3.162-1.561,4.648-2.461C207.86,147.397,207.709,147.227,207.594,147.284z"/>
				</g>
				<g>
					<path style="fill:#434244;" d="M210.434,149.906c-0.507-0.998-1.194-2.044-1.931-2.888c-0.024-0.028-0.07,0-0.056,0.034
						c0.419,1.021,1.054,2.092,1.713,2.977C210.26,150.163,210.525,150.084,210.434,149.906z"/>
				</g>
				<g>
					<path style="fill:#434244;" d="M217.232,147.518c-1.56,0.937-3.084,1.952-4.551,3.029c-0.028,0.021,0.007,0.061,0.034,0.046
						c1.601-0.877,3.174-1.827,4.689-2.846C217.548,147.65,217.369,147.436,217.232,147.518z"/>
				</g>
				<g>
					<path style="fill:#434244;" d="M222.484,150.313c-0.763-1.964-2.635-3.383-4.751-3.524c-0.025-0.002-0.036,0.035-0.009,0.042
						c1.993,0.487,3.541,1.732,4.434,3.583C222.233,150.568,222.553,150.49,222.484,150.313z"/>
				</g>
				<g>
					<path style="fill:#434244;" d="M225.982,148.5c-1.052,0.768-1.994,1.767-2.928,2.673c-0.025,0.024,0.011,0.057,0.036,0.037
						c1.028-0.818,2.147-1.63,3.051-2.584C226.226,148.536,226.062,148.441,225.982,148.5z"/>
				</g>
				<g>
					<path style="fill:#434244;" d="M227.775,147.096c-0.003-0.078-0.089-0.135-0.162-0.097c-0.345,0.179-0.686,0.36-1.044,0.511
						c-0.008,0.003-0.001,0.014,0.006,0.011c0.123-0.044,0.724-0.33,0.883-0.182c0.137,0.127,0.012,0.549-0.004,0.738
						c-0.046,0.553-0.088,1.106-0.122,1.66c-0.068,1.109-0.142,2.215-0.172,3.325c-0.007,0.244,0.399,0.272,0.416,0.027
						C227.719,151.107,227.837,149.082,227.775,147.096z"/>
				</g>
				<g>
					<path style="fill:#434244;" d="M138.727,144.049c-0.333-0.353-0.692-0.678-1.04-1.016c-0.053-0.051-0.139-0.058-0.198-0.013
						c-1.808,1.381-3.647,2.736-5.376,4.216c-0.061,0.052,0.024,0.123,0.082,0.084c1.131-0.775,2.218-1.613,3.309-2.444
						c0.524-0.399,1.057-0.922,1.63-1.247c0.281-0.159,0.333-0.304,0.651-0.122c0.259,0.149,0.503,0.507,0.728,0.711
						C138.634,144.328,138.855,144.184,138.727,144.049z"/>
				</g>
				<g>
					<path style="fill:#434244;" d="M141.464,142.882c-0.959,0.58-1.949,1.101-2.884,1.724c-0.081,0.054,0.019,0.171,0.096,0.127
						c0.971-0.562,1.876-1.217,2.82-1.819C141.522,142.898,141.487,142.868,141.464,142.882z"/>
				</g>
				<g>
					<path style="fill:#434244;" d="M144.62,143.025c-0.887-0.23-1.823-0.368-2.73-0.487c-0.022-0.003-0.03,0.029-0.008,0.036
						c0.877,0.265,1.785,0.523,2.688,0.678C144.71,143.276,144.761,143.062,144.62,143.025z"/>
				</g>
				<g>
					<path style="fill:#434244;" d="M149.754,139.758c-1.38,0.775-2.696,1.682-4.005,2.57c-0.032,0.022,0.008,0.069,0.038,0.051
						c1.368-0.799,2.759-1.593,4.055-2.504C149.915,139.824,149.825,139.718,149.754,139.758z"/>
				</g>
				<g>
					<path style="fill:#434244;" d="M151.433,141.528c-0.415-0.552-0.857-1.128-1.358-1.604c-0.022-0.021-0.067-0.001-0.05,0.03
						c0.323,0.601,0.763,1.172,1.184,1.709C151.294,141.771,151.524,141.65,151.433,141.528z"/>
				</g>
				<g>
					<path style="fill:#434244;" d="M154.709,139.616c-0.822,0.662-1.634,1.334-2.445,2.009c-0.014,0.011,0.006,0.028,0.018,0.019
						c0.83-0.654,1.658-1.309,2.477-1.976C154.796,139.637,154.743,139.589,154.709,139.616z"/>
				</g>
				<g>
					<path style="fill:#434244;" d="M158.217,140.502c-0.694-0.589-1.479-1.263-2.296-1.665c-0.045-0.022-0.108,0.021-0.067,0.068
						c0.287,0.33,0.668,0.593,1.011,0.865c0.39,0.309,0.777,0.619,1.188,0.9C158.157,140.742,158.329,140.596,158.217,140.502z"/>
				</g>
				<g>
					<path style="fill:#434244;" d="M163.401,137.381c-1.366,0.806-2.68,1.695-4.034,2.521c-0.02,0.012,0.005,0.041,0.023,0.031
						c1.364-0.817,2.766-1.571,4.118-2.409C163.599,137.466,163.486,137.33,163.401,137.381z"/>
				</g>
				<g>
					<path style="fill:#434244;" d="M166.119,139.932c-0.689-0.827-1.422-1.756-2.283-2.408c-0.027-0.021-0.072,0.011-0.054,0.043
						c0.527,0.934,1.37,1.775,2.098,2.555C166.007,140.259,166.25,140.09,166.119,139.932z"/>
				</g>
				<g>
					<path style="fill:#434244;" d="M169.804,138.22c-1.148,0.604-2.211,1.383-3.279,2.116c-0.041,0.029,0.01,0.089,0.05,0.066
						c1.118-0.656,2.28-1.286,3.314-2.071C169.956,138.28,169.872,138.184,169.804,138.22z"/>
				</g>
				<g>
					<path style="fill:#434244;" d="M172.632,140.463c-0.811-0.747-1.654-1.577-2.585-2.173c-0.061-0.039-0.138,0.032-0.089,0.091
						c0.69,0.838,1.613,1.566,2.439,2.267C172.533,140.764,172.782,140.601,172.632,140.463z"/>
				</g>
				<g>
					<path style="fill:#434244;" d="M175.012,138.555c-0.675,0.466-1.392,0.914-1.984,1.486c-0.022,0.021,0.004,0.054,0.031,0.041
						c0.749-0.368,1.425-0.892,2.104-1.373C175.28,138.624,175.119,138.481,175.012,138.555z"/>
				</g>
				<g>
					<path style="fill:#434244;" d="M178.712,140.218c-0.694-0.816-1.406-1.783-2.281-2.413c-0.035-0.025-0.091,0.013-0.069,0.055
						c0.246,0.458,0.622,0.848,0.957,1.242c0.377,0.444,0.763,0.874,1.158,1.302C178.601,140.539,178.842,140.371,178.712,140.218z"
						/>
				</g>
				<g>
					<path style="fill:#434244;" d="M183.255,137.723c-0.977,0.762-1.925,1.553-2.828,2.402c-0.029,0.027,0.012,0.062,0.041,0.042
						c1.016-0.717,1.986-1.488,2.933-2.295C183.507,137.781,183.355,137.645,183.255,137.723z"/>
				</g>
				<g>
					<path style="fill:#434244;" d="M199.657,138.252c-0.653,0.589-1.272,1.219-1.882,1.853c0.018,0.025,0.036,0.05,0.053,0.075
						c0.667-0.593,1.329-1.194,1.952-1.831C199.843,138.284,199.718,138.197,199.657,138.252z"/>
				</g>
				<g>
					<path style="fill:#434244;" d="M201.999,140.908c-0.239-1.139-0.665-2.26-1.044-3.359c-0.014-0.04-0.083-0.032-0.074,0.013
						c0.248,1.13,0.469,2.302,0.857,3.393C201.788,141.095,202.033,141.07,201.999,140.908z"/>
				</g>
				<g>
					<path style="fill:#434244;" d="M206.051,138.199c-1.305,0.697-2.651,1.455-3.828,2.353c-0.051,0.039,0.011,0.104,0.061,0.081
						c1.356-0.612,2.668-1.428,3.909-2.247C206.313,138.308,206.165,138.138,206.051,138.199z"/>
				</g>
				<g>
					<path style="fill:#434244;" d="M209.828,139.535c-0.956-0.608-2.004-1.298-3.081-1.664c-0.017-0.006-0.037,0.015-0.022,0.029
						c0.824,0.765,1.936,1.345,2.918,1.883C209.816,139.879,210.014,139.652,209.828,139.535z"/>
				</g>
				<g>
					<path style="fill:#434244;" d="M213.861,137.915c-1.216,0.553-2.405,1.149-3.582,1.782c-0.047,0.025-0.008,0.085,0.037,0.066
						c1.238-0.512,2.455-1.057,3.656-1.65C214.116,138.043,213.995,137.854,213.861,137.915z"/>
				</g>
				<g>
					<path style="fill:#434244;" d="M216.557,140.094c-0.587-0.744-1.146-1.591-1.875-2.204c-0.017-0.015-0.052-0.002-0.039,0.024
						c0.416,0.852,1.126,1.602,1.71,2.342C216.451,140.38,216.665,140.23,216.557,140.094z"/>
				</g>
				<g>
					<path style="fill:#434244;" d="M222.042,137.84c-1.432,0.711-2.862,1.463-4.214,2.319c-0.027,0.017,0.006,0.051,0.031,0.041
						c1.465-0.638,2.891-1.398,4.283-2.182C222.264,137.948,222.161,137.781,222.042,137.84z"/>
				</g>
				<g>
					<path style="fill:#434244;" d="M225.508,139.764c-0.749-0.733-1.591-1.489-2.485-2.043c-0.021-0.013-0.048,0.011-0.031,0.032
						c0.66,0.815,1.52,1.542,2.342,2.189C225.442,140.026,225.616,139.87,225.508,139.764z"/>
				</g>
				<g>
					<path style="fill:#434244;" d="M228.051,138.063c-0.686,0.539-1.367,1.076-1.992,1.685c-0.035,0.034,0.014,0.074,0.05,0.051
						c0.741-0.472,1.427-1.012,2.115-1.559C228.354,138.136,228.17,137.969,228.051,138.063z"/>
				</g>
				<g>
					<path style="fill:#434244;" d="M232.471,139.341c-0.458-0.774-1.056-1.592-1.704-2.216c-0.03-0.029-0.087-0.002-0.067,0.04
						c0.377,0.816,0.958,1.631,1.541,2.314C232.332,139.586,232.551,139.477,232.471,139.341z"/>
				</g>
				<g>
					<path style="fill:#434244;" d="M236.9,137.292c-1.17,0.784-2.379,1.613-3.437,2.545c-0.028,0.025,0.007,0.069,0.038,0.051
						c1.224-0.716,2.401-1.602,3.521-2.47C237.117,137.344,236.986,137.234,236.9,137.292z"/>
				</g>
				<g>
					<path style="fill:#434244;" d="M238.744,136.277c-0.009-0.031-0.056-0.028-0.061,0.004c-0.133,0.829-0.003,1.745,0.07,2.578
						c0.012,0.137,0.277,0.127,0.27-0.015C238.983,138.008,238.985,137.08,238.744,136.277z"/>
				</g>
				<g>
					<path style="fill:#434244;" d="M229.51,150.733c-0.46-1.182-1.086-2.371-1.745-3.454c-0.03-0.049-0.139-0.03-0.115,0.035
						c0.437,1.182,0.979,2.405,1.618,3.493C229.329,150.913,229.563,150.869,229.51,150.733z"/>
				</g>
				<g>
					<path style="fill:#434244;" d="M232.483,145.827c-1.016,1.354-1.93,2.77-2.865,4.179c-0.016,0.025,0.023,0.046,0.04,0.024
						c1.028-1.348,2.07-2.678,3.019-4.085C232.758,145.825,232.563,145.72,232.483,145.827z"/>
				</g>
				<g>
					<path style="fill:#434244;" d="M235.73,147.547c-0.27-1.055-0.624-2.174-1.067-3.169c-0.01-0.023-0.049-0.011-0.045,0.014
						c0.173,1.065,0.493,2.185,0.844,3.204C235.512,147.74,235.771,147.71,235.73,147.547z"/>
				</g>
				<g>
					<path style="fill:#434244;" d="M237.275,143.399c-0.458,0.941-0.857,1.907-1.307,2.851c-0.016,0.033,0.043,0.05,0.058,0.019
						c0.452-0.948,0.953-1.87,1.398-2.822C237.464,143.361,237.314,143.319,237.275,143.399z"/>
				</g>
				<g>
					<path style="fill:#434244;" d="M239.344,144.467c-0.38-0.778-0.999-1.49-1.495-2.2c-0.026-0.037-0.099-0.013-0.073,0.033
						c0.433,0.757,0.812,1.613,1.355,2.296C239.215,144.701,239.406,144.594,239.344,144.467z"/>
				</g>
				<g>
					<path style="fill:#434244;" d="M240.064,139.115c0.005-0.121-0.191-0.133-0.205-0.013c-0.173,1.473-0.288,2.981-0.283,4.464
						c0,0.04,0.062,0.044,0.068,0.004C239.883,142.105,240.005,140.597,240.064,139.115z"/>
				</g>
				<g>
					<path style="fill:#434244;" d="M240.299,136.973c-0.017-0.001-0.019,0.024-0.002,0.025
						C240.315,136.999,240.317,136.974,240.299,136.973z"/>
				</g>
				<g>
					<path style="fill:#434244;" d="M242.011,202.157c0.019-3.266,0.081-6.548-0.071-9.813c0.063-0.06,0.103-0.145,0.102-0.258
						c-0.067-6.846-0.393-13.699-0.594-20.543c-0.2-6.79-0.408-13.58-0.615-20.37c-0.119-3.89-0.235-7.78-0.403-11.668
						c-0.002-0.043-0.075-0.049-0.075-0.005c0.033,13.624,0.366,27.251,0.587,40.873c0.063,3.883,0.06,7.774,0.199,11.655
						c0.01,0.28,0.269,0.428,0.507,0.425c-0.425,5.807-0.372,11.687-0.44,17.505c-0.069,5.987-0.139,11.974-0.208,17.961
						c-0.04,3.429-0.094,6.858-0.142,10.287c-0.006,0.429,0.725,0.476,0.73,0.047C241.721,226.221,241.942,214.19,242.011,202.157z"
						/>
				</g>
				<g>
					<path style="fill:#434244;" d="M238.739,275.283c0.387-6.245,0.761-12.491,1.129-18.738c0.368-6.239,0.886-12.499,0.941-18.75
						c0.001-0.072-0.114-0.08-0.123-0.008c-0.735,6.207-1.01,12.483-1.432,18.718c-0.422,6.231-0.839,12.463-1.242,18.696
						c-3.307,1.77-6.614,3.54-9.914,5.322c-3.203,1.73-6.555,3.334-9.612,5.315c-0.139,0.09,0.031,0.263,0.157,0.209
						c3.391-1.457,6.633-3.371,9.898-5.089c3.281-1.728,6.556-3.468,9.831-5.208c0.096-0.051,0.148-0.121,0.168-0.196
						C238.646,275.511,238.73,275.422,238.739,275.283z"/>
				</g>
				<g>
					<path style="fill:#434244;" d="M184.385,195.523c0.607-3.401,0.231-7.543-3.009-9.06c-3.138-1.47-6.735,0.152-8.683,3.148
						c-2.831,4.354-2.038,9.685-0.528,14.234c0.01,0.032,0.062,0.019,0.052-0.016c-0.986-3.59-1.605-7.572-0.433-11.288
						c1.081-3.426,3.785-6.308,7.265-6.228c3.497,0.081,5.277,3.192,5.221,6.705c-0.058,3.646-1.446,7.436-3.108,10.616
						c-0.941,1.8-2.074,3.919-3.779,4.997c-0.828,0.523-1.785,0.703-2.648,0.271c-0.843-0.422-1.454-1.271-1.255-2.327
						c0.044-0.231-0.313-0.313-0.36-0.081c-0.267,1.326,0.584,2.402,1.68,2.828c1.489,0.58,2.994-0.324,4.055-1.499
						c1.461-1.619,2.554-3.732,3.452-5.743C183.236,199.998,183.982,197.779,184.385,195.523z"/>
				</g>
				<g>
					<path style="fill:#434244;" d="M167.31,203.219c-0.054-2.207-0.316-4.413-0.778-6.572c-0.662-3.097-2.059-7.699-6.18-6.759
						c-3.497,0.798-5.356,4.991-5.993,8.167c-0.794,3.961-0.023,8.17,2.212,11.543c0.108,0.163,0.421,0.061,0.301-0.122
						c-1.743-2.668-2.565-5.835-2.401-9.016c0.16-3.097,1.271-6.551,3.558-8.744c1.374-1.317,3.499-2.061,5.217-0.917
						c1.43,0.952,2.014,2.822,2.423,4.396c0.92,3.536,1.495,7.461,0.981,11.106c-0.283,2.003-1.064,4.107-2.796,5.293
						c-1.564,1.071-3.688,1.393-5.28,0.213c-0.256-0.189-0.542,0.172-0.28,0.372c2.794,2.133,6.56,0.132,7.947-2.661
						C167.204,207.582,167.362,205.347,167.31,203.219z"/>
				</g>
				<g>
					<path style="fill:#434244;" d="M174.929,214.486c-1.717-0.86-3.69-0.915-5.39,0.018c-1.816,0.998-3.074,2.747-4.193,4.439
						c-1.67,2.524-3.326,5.061-4.911,7.64c-3.007,0.748-6.309,2.194-8.228,4.719c-1.644,2.163-2.013,5.27-0.07,7.372
						c0.019,0.021,0.055-0.005,0.036-0.028c-1.87-2.351-1.143-5.623,0.748-7.71c1.981-2.185,4.696-2.93,7.307-4.02
						c-0.042,0.068-0.085,0.136-0.127,0.205c-0.009,0.015,0.014,0.027,0.023,0.014c0.06-0.083,0.117-0.166,0.176-0.249
						c0.092-0.038,0.183-0.076,0.274-0.116c0.114-0.049,0.057-0.2-0.048-0.204c1.697-2.381,3.321-4.812,4.955-7.236
						c1.404-2.081,3.072-4.541,5.712-5.064c2.741-0.543,5.395,1.379,6.671,3.685c1.419,2.562,1.338,5.325,1.599,8.142
						c0.022,0.236,0.437,0.207,0.453-0.026C180.2,221.848,179.032,216.542,174.929,214.486z"/>
				</g>
				<g>
					<path style="fill:#434244;" d="M179.889,226.751c-0.065-0.012-0.081,0.08-0.022,0.102c3.74,1.397,6.73,4.869,6.736,8.994
						c0.003,2.109-0.849,4.323-2.502,5.683c-1.77,1.457-4.339,1.723-6.274,0.442c-0.295-0.195-0.635,0.217-0.326,0.437
						c1.798,1.276,4.268,1.231,6.133,0.108c2.083-1.254,3.214-3.656,3.404-6.018C187.389,232.145,184.279,227.546,179.889,226.751z"
						/>
				</g>
				<g>
					<path style="fill:#434244;" d="M160.927,242.184c-1.627,0.354-3.137,0.599-4.79,0.215c-1.622-0.377-3.065-1.228-4.248-2.389
						c-0.007-0.007-0.024,0.001-0.017,0.01c1.91,2.606,6.199,4.105,9.188,2.505C161.259,242.419,161.145,242.137,160.927,242.184z"
						/>
				</g>
				<g>
					<path style="fill:#434244;" d="M178.361,242.04c-2.647,1.619-5.524,2.607-8.643,2.712c-3.017,0.102-5.741-0.662-8.517-1.76
						c-0.017-0.007-0.03,0.016-0.015,0.027c4.917,3.495,12.761,2.796,17.502-0.645C178.951,242.185,178.595,241.897,178.361,242.04z
						"/>
				</g>
				<g>
					<path style="fill:#434244;" d="M200.201,205.261c0.222-1.472,0.382-3.143-0.383-4.493c-0.799-1.409-2.463-1.979-4.015-1.791
						c-1.805,0.218-3.391,1.362-4.7,2.554c-1.333,1.214-2.458,2.646-3.338,4.22c-1.979,3.537-2.75,7.76-1.909,11.742
						c0.004,0.017,0.036,0.014,0.033-0.004c-0.978-6.387,1.61-13.512,7.155-17.12c1.552-1.01,3.604-1.655,5.334-0.667
						c1.732,0.989,1.824,3.102,1.617,4.862c-0.408,3.458-1.209,7.185-3.21,10.094c-2.144,3.117-6.137,5.018-9.786,3.445
						c-0.263-0.114-0.488,0.221-0.216,0.37c3.018,1.647,6.855,0.226,9.115-2.072C198.758,213.49,199.615,209.144,200.201,205.261z"
						/>
				</g>
				<g>
					<path style="fill:#434244;" d="M132.671,224.203c-1.207-4.033-2.416-8.066-3.651-12.09c-1.232-4.015-2.312-8.13-3.773-12.069
						c-0.032-0.085-0.184-0.07-0.161,0.029c0.977,4.077,2.375,8.089,3.587,12.102c1.218,4.032,2.463,8.056,3.709,12.08
						C132.433,224.415,132.722,224.373,132.671,224.203z"/>
				</g>
				<g>
					<path style="fill:#434244;" d="M224.182,212.981c-4.427,1.373-8.79,2.818-13.316,3.856c-4.416,1.012-8.888,1.766-13.39,2.272
						c-0.172,0.019-0.106,0.253,0.056,0.236c4.615-0.493,9.2-1.245,13.727-2.269c4.397-0.994,8.894-2.129,13.094-3.791
						C224.586,213.193,224.388,212.917,224.182,212.981z"/>
				</g>
				<g>
					<path style="fill:#434244;" d="M151.059,167.84c-7.643,0.086-15.283,0.23-22.925,0.366c-0.026,0.001-0.029,0.037-0.002,0.037
						c7.639-0.055,15.276-0.102,22.915-0.206C151.184,168.034,151.199,167.838,151.059,167.84z"/>
				</g>
				<g>
					<path style="fill:#434244;" d="M223.773,166.937c-6.415,2.417-12.802,4.907-19.19,7.394c-0.07,0.027-0.012,0.119,0.053,0.094
						c6.398-2.455,12.797-4.907,19.168-7.432C223.845,166.976,223.811,166.923,223.773,166.937z"/>
				</g>
				<g>
					<path style="fill:#434244;" d="M228.884,242.817c-3.314,1.207-6.6,2.482-9.902,3.72c-0.029,0.011-0.005,0.048,0.022,0.039
						c3.319-1.209,6.649-2.38,9.957-3.621C229.066,242.916,228.979,242.782,228.884,242.817z"/>
				</g>
				<g>
					<path style="fill:#434244;" d="M227.948,243.989c-2.104,9.744-3.818,19.584-5.579,29.395c-0.022,0.122,0.188,0.134,0.212,0.014
						c1.908-9.775,3.872-19.559,5.434-29.396C228.02,243.967,227.956,243.956,227.948,243.989z"/>
				</g>
				<g>
					<path style="fill:#434244;" d="M239.724,238.088c-4.596-1.982-8.771-4.855-12.284-8.42c-0.1-0.102-0.293,0.031-0.184,0.145
						c3.514,3.659,7.71,6.527,12.382,8.501C239.791,238.379,239.881,238.155,239.724,238.088z"/>
				</g>
				<g>
					<path style="fill:#434244;" d="M241.662,190.743c-3.272,3.803-6.35,7.798-9.452,11.738c-0.032,0.04,0.038,0.077,0.068,0.042
						c3.233-3.844,6.526-7.673,9.589-11.655C241.962,190.745,241.752,190.638,241.662,190.743z"/>
				</g>
				<g>
					<path style="fill:#434244;" d="M134.888,252.603c-4.375-2.448-8.731-4.949-13.196-7.231c-0.028-0.015-0.061,0.022-0.03,0.041
						c4.303,2.564,8.736,4.918,13.132,7.318C134.882,252.778,134.985,252.657,134.888,252.603z"/>
				</g>
				<g>
					<path style="fill:#434244;" d="M214.296,250.224c-13.938,2.138-27.822,4.707-41.722,7.084l-11.844,2.026
						c-0.201,0.034-0.126,0.311,0.066,0.278c13.904-2.376,27.81-4.739,41.71-7.136c3.946-0.68,7.9-1.323,11.834-2.065
						C214.476,250.385,214.425,250.204,214.296,250.224z"/>
				</g>
				<g>
					<path style="fill:#434244;" d="M173.26,272.767c-13.695-0.378-27.389-0.754-41.085-1.102
						c-3.906-0.099-7.812-0.188-11.718-0.241c-0.069-0.001-0.076,0.095-0.006,0.098c13.688,0.531,27.389,0.792,41.083,1.132
						c3.905,0.097,7.81,0.194,11.715,0.291C173.374,272.948,173.387,272.771,173.26,272.767z"/>
				</g>
				<g>
					<path style="fill:#434244;" d="M206.117,269.817c-1.882-0.736-3.765-1.47-5.651-2.198c-0.154-0.06-0.246,0.164-0.086,0.227
						c1.882,0.737,3.766,1.469,5.65,2.198C206.186,270.103,206.277,269.879,206.117,269.817z"/>
				</g>
				<g>
					<path style="fill:#434244;" d="M146.157,186.585c-6.704-0.779-13.409-1.553-20.118-2.293c-0.035-0.004-0.037,0.045-0.003,0.049
						c6.703,0.799,13.409,1.564,20.116,2.324C146.208,186.671,146.213,186.591,146.157,186.585z"/>
				</g>
				<g>
					<path style="fill:#434244;" d="M212.991,181.697c-8.771,1.567-17.717,1.53-26.496,0.041c-0.077-0.013-0.107,0.11-0.027,0.126
						c8.756,1.658,17.797,1.594,26.552-0.046C213.107,181.802,213.075,181.682,212.991,181.697z"/>
				</g>
				<g>
					<path style="fill:#434244;" d="M199.436,189.831c-2.339-0.895-4.592-2.009-6.716-3.336c-2.142-1.338-4.053-2.941-6.004-4.533
						c-0.021-0.017-0.057,0.005-0.036,0.028c3.346,3.685,8.064,6.311,12.69,8.015C199.49,190.05,199.56,189.879,199.436,189.831z"/>
				</g>
				<g>
					<path style="fill:#434244;" d="M195.308,146.579c-1.686,0.973-3.213,2.188-4.949,3.077c-0.313,0.16-0.767,0.059-0.979-0.22
						c-0.245-0.323-0.406-0.626-0.516-0.994c0-0.001-0.001-0.001-0.001-0.002h0c-0.02-0.067-0.041-0.132-0.058-0.204
						c-0.005-0.023-0.005-0.044-0.008-0.067c-0.025-0.057-0.052-0.115-0.077-0.172c-0.205-0.089-0.384-0.246-0.475-0.466
						c-0.403-0.98-0.836-1.937-1.097-2.962c-0.011-0.031-0.024-0.062-0.035-0.093c-0.09-0.198-0.179-0.398-0.262-0.598
						c-0.033-0.041-0.063-0.086-0.088-0.138c-0.35-0.736-0.631-1.488-0.856-2.259c-0.075-0.076-0.139-0.17-0.182-0.289
						c-0.392-1.093-0.611-2.232-0.956-3.339c-0.033-0.107-0.04-0.208-0.031-0.302c-0.047-0.101-0.084-0.205-0.11-0.312l-6.151,3.167
						l-2.115-2.544l-3.964,2.789l-2.439-2.267l-3.433,1.955l-2.744-2.77l-5.564,2.935l-2.363-1.597l-4.645,2.758
						c0,0-1.002-1.629-1.184-1.709c-0.183-0.079-5.454,3.298-5.454,3.298l-3.075-0.337l-2.915,1.692l-0.893-1.574l-5.492,4.287
						l-3.98,0.397l3.236,2.543l6.699-2.926l3.098,3.709l7.309-3.953l1.198,0.261l3.704,3.211l1.56,1.069l6.81-4.901l7.286,4.465
						l9.364-6.674l9.454,5.999l1.458,0.71l9.112-5.392C197.513,145.611,196.47,145.908,195.308,146.579z"/>
				</g>
				<g>
					<path style="fill:#434244;" d="M238.753,138.858l-0.07-2.578l-5.182,3.608l-2.801-2.722l-5.366,2.776l-3.292-2.102l-5.69,2.415
						l-1.71-2.342l-4.327,1.851l-3.591-1.864l-4.441,2.733l-1.329-3.084l-2.995,2.541c1.217,2.05,2.57,4.009,3.914,5.977
						c0.551,0.806-0.67,1.823-1.327,1.094c-0.366-0.407-0.733-0.713-1.105-0.937l2.599,4.276l6.406-3.448l3.164,4.28l7.081-5.283
						c0,0,2.571,3.606,3.466,4.365c0.895,0.76,5.491-3.098,5.491-3.098l1.618,3.493l3.245-5.728l1.776,1.561l0.329-2.248l1.35,1.859
						l1.808-3.951l1.355,2.296l0.729-5.494L238.753,138.858z"/>
				</g>
				<g>
					<g>
						<path style="fill:#434244;" d="M153.93,215.288c-0.161-2.257-0.798-4.522-1.837-6.568c-0.048-0.141-0.095-0.282-0.146-0.422
							c-0.975-2.66-2.902-5.54-6.081-5.448c-0.597,0.017-1.111,0.147-1.553,0.362c-0.704,0.217-1.363,0.676-1.917,1.454
							c-0.972,1.365-1.098,3.057-0.844,4.667c0.297,1.885,0.936,3.793,1.618,5.572c0.21,0.548,0.468,1.113,0.768,1.669
							c0.552,1.264,1.203,2.483,1.939,3.635c0.063,0.098,0.227,0.009,0.161-0.098c-0.384-0.627-0.742-1.269-1.072-1.925
							c0.589,0.782,1.273,1.483,2.047,2.01c0.436,0.958,1.487,1.519,2.554,1.405c0.036-0.004,0.072-0.011,0.108-0.016
							c1.188,0.04,2.276-0.52,3.072-1.461C153.869,218.797,154.049,216.956,153.93,215.288z M147.622,203.455
							c1.305,0.488,2.293,1.543,3.004,2.712c0.164,0.27,0.316,0.548,0.46,0.831c-0.329-0.493-0.682-0.968-1.062-1.418
							c-0.946-1.12-2.313-2.08-3.707-2.404C146.761,203.203,147.204,203.298,147.622,203.455z M144.667,215.998
							c-0.639-1.365-1.048-2.825-1.454-4.273c-0.405-1.442-0.872-2.94-0.706-4.456c0.144-1.319,0.867-2.762,2.204-3.199
							c1.484-0.485,2.978,0.49,3.994,1.494c1.999,1.975,3.322,4.76,3.928,7.477c0.062,0.279,0.12,0.562,0.171,0.849
							c0.013,0.257,0.023,0.512,0.026,0.766c0.021,1.544-0.046,3.378-0.835,4.781c-0.534,0.67-1.272,1.147-2.132,1.259
							C147.488,220.155,145.709,218.223,144.667,215.998z M148.745,221.008c-0.018,0.053-0.027,0.109-0.024,0.164
							c-0.381-0.078-0.73-0.261-1.006-0.563C148.045,220.776,148.388,220.911,148.745,221.008z"/>
					</g>
					<g>
						<path style="fill:#434244;" d="M167.933,204.065c0.058-2.597-0.502-5.171-1.083-7.687c-0.442-1.913-1.011-4.014-2.499-5.4
							c-2.859-2.663-7.444-1.164-9.44,1.82c-1.231,1.84-1.674,4.09-1.72,6.273c-0.049,2.31,0.217,4.739,0.877,6.956
							c0.663,2.225,1.842,4.313,3.84,5.586c0.957,0.61,2.082,1.025,3.207,1.086c-0.309,0.242-0.109,0.784,0.358,0.687
							C165.718,212.504,167.844,208.055,167.933,204.065z M162.535,212.129c-3.474,0.053-6.183-2.599-7.262-5.893
							c-0.591-1.806-0.852-3.738-0.945-5.63c-0.096-1.967,0.019-4.001,0.767-5.845c1.205-2.971,5.272-5.782,8.258-3.304
							c1.364,1.132,1.905,2.963,2.305,4.62c0.491,2.03,0.953,4.103,1.115,6.189C167.059,205.933,165.984,210.377,162.535,212.129z"
							/>
					</g>
					<g>
						<path style="fill:#434244;" d="M183.526,188.886c-1.957-3.555-6.686-3.841-9.662-1.401c-3.575,2.931-3.902,7.887-3.53,12.155
							c0.208,2.389,0.689,4.872,2.154,6.836c0.749,1.005,1.756,1.917,2.918,2.394c-0.088,0.022-0.176,0.045-0.266,0.064
							c-0.719,0.147-0.439,1.055,0.234,0.986c4.177-0.429,6.556-5.393,7.786-8.846C184.456,197.434,185.508,192.486,183.526,188.886
							z M182.374,199.649c-0.994,3.241-2.772,7.559-6.156,8.954c-1.201-0.579-2.237-1.421-2.989-2.574
							c-1.021-1.565-1.439-3.421-1.678-5.248c-0.496-3.794-0.533-8.225,1.961-11.377c2.252-2.845,6.994-3.67,8.968-0.051
							C184.135,192.389,183.329,196.533,182.374,199.649z"/>
					</g>
					<g>
						<path style="fill:#434244;" d="M200.223,203.136c-0.156-1.893-1.004-3.862-2.776-4.762c-1.781-0.905-3.772-0.322-5.348,0.724
							c-3.642,2.415-5.973,7.097-6.88,11.252c-0.487,2.229-0.713,4.882,0.695,6.846c0.32,0.446,0.717,0.837,1.163,1.148
							c-0.153,0.194-0.169,0.474,0.119,0.616c3.475,1.707,7.624-0.243,9.783-3.161c1.318-1.781,2.069-3.902,2.541-6.047
							C199.988,207.624,200.402,205.318,200.223,203.136z M198.511,208.804c-0.33,1.809-0.841,3.62-1.731,5.238
							c-1.298,2.357-3.613,4.194-6.201,4.486c-0.045-0.027-0.1-0.039-0.159-0.025c-0.126,0.03-0.252,0.051-0.377,0.065
							c-0.331,0.009-0.665-0.007-1.002-0.051c-1.253-0.27-2.303-1.288-2.739-2.538c-0.621-1.78-0.331-3.77,0.095-5.562
							c0.819-3.448,2.58-6.939,5.16-9.409c1.234-1.182,3.077-2.436,4.871-1.869c1.737,0.548,2.485,2.478,2.609,4.139
							C199.172,205.102,198.838,207.013,198.511,208.804z"/>
					</g>
					<g>
						<path style="fill:#434244;" d="M180.005,221.404c-0.609-2.557-2.147-4.896-4.452-6.228c-5.395-3.117-10.407,1.721-12.909,6.2
							c-1.709,3.059-2.952,6.49-3.08,10.017c-0.001,0.022,0.036,0.03,0.043,0.008c0.73-2.661,1.56-5.3,2.846-7.752
							c1.233-2.352,2.806-4.747,4.861-6.462c1.919-1.601,4.394-2.483,6.809-1.473c2.253,0.943,3.915,3.186,4.714,5.434
							c1.097,3.089,0.998,6.484,0.614,9.693c-0.047,0.393,0.655,0.444,0.677,0.044C180.3,227.728,180.749,224.525,180.005,221.404z"
							/>
					</g>
				</g>
				<g>
					<path style="fill:#434244;" d="M161.798,241.102c-0.007,0-0.008,0.009-0.001,0.01
						C161.805,241.112,161.805,241.102,161.798,241.102z"/>
				</g>
				<g>
					<path style="fill:#434244;" d="M180.038,225.355c-0.48-0.227-1.337,0.312-0.768,0.787c1.703,1.424,3.514,2.651,4.795,4.509
						c1.261,1.829,1.944,4.01,1.683,6.239c-0.239,2.046-1.376,3.932-3.302,4.772c-0.869,0.379-1.833,0.547-2.779,0.484
						c-0.952-0.063-1.711-0.482-2.605-0.727c-0.08-0.022-0.151,0.043-0.119,0.123c0.083,0.207,0.194,0.39,0.326,0.553
						c-1.204,0.648-2.359,1.356-3.666,1.797c-1.46,0.493-3.008,0.7-4.545,0.702c-1.483,0.002-2.984-0.213-4.403-0.646
						c-1.283-0.392-2.42-1.021-3.623-1.564c0.395-0.439,0.663-0.947,0.373-1.337c-0.004-0.005-0.009-0.007-0.015-0.005
						c-0.352,0.127-0.431,0.428-0.65,0.717c-0.382,0.506-0.921,0.874-1.51,1.099c-1.223,0.467-2.645,0.18-3.793-0.363
						c-2.138-1.01-4.263-2.916-4.526-5.392c-0.25-2.355,1.011-4.662,2.681-6.232c1.791-1.683,4.008-2.516,6.049-3.8
						c0.533-0.335-0.122-0.946-0.581-0.774c-4.663,1.746-11.058,6.581-8.904,12.345c0.951,2.545,3.697,4.676,6.328,5.209
						c1.213,0.246,2.435,0.06,3.496-0.59c0.207-0.127,0.548-0.376,0.857-0.677c0.853,1.008,2.19,1.735,3.358,2.227
						c1.556,0.655,3.22,0.998,4.906,1.063c3.076,0.118,6.935-0.759,9.126-3.06c1.269,0.584,3.071,0.475,4.162,0.133
						c2.237-0.702,3.885-2.502,4.493-4.758C188.274,233.03,184.649,227.539,180.038,225.355z"/>
				</g>
				<g>
					<path style="fill:#434244;" d="M217.498,284.194c-6.336-0.347-12.687-0.491-19.026-0.775
						c-6.341-0.284-12.681-0.597-19.02-0.933c-12.736-0.675-25.466-1.459-38.198-2.216c-3.547-0.211-7.093-0.414-10.641-0.601
						c-3.51-0.185-7.035-0.431-10.551-0.424c0.024-0.083,0.026-0.177-0.01-0.284c-0.066-0.196-0.115-0.326-0.19-0.477
						c-0.441-1.118-0.787-2.258-1.05-3.433c-0.238-1.067-0.329-2.199-0.656-3.247c0.386,0.022,0.771-0.181,0.779-0.637
						c0.076-4.394,0.224-8.766,0.634-13.144c0.201-2.154,0.455-4.303,0.762-6.445c0.249-1.741,0.675-3.571,0.752-5.359
						c0.222-0.076,0.407-0.243,0.445-0.516c1.657-11.713,3.241-23.415,4.052-35.225c0.198-2.883,0.326-5.738,0.28-8.616
						c0.084-0.081,0.148-0.188,0.174-0.324c0.266-1.453-0.05-3.067-0.165-4.531c-0.124-1.573-0.247-3.145-0.371-4.718
						c-0.215-2.736-0.333-5.566-0.87-8.269c0.519-2.451,0.708-4.993,1.181-7.455c0.534-2.773,1.108-5.531,1.855-8.256
						c0.043-0.157,0.035-0.299-0.009-0.425c0.363-1.573,0.241-3.347,0.304-4.955c0.071-1.801,0.138-3.601,0.199-5.402
						c0.059-1.743,0.132-3.486,0.175-5.229c0.021-0.872,0.039-1.747,0.024-2.619c-0.013-0.757,0.019-1.482-0.343-2.161
						c-0.03-0.056-0.124-0.065-0.16-0.01c-0.424,0.638-0.463,1.354-0.549,2.103c-0.092,0.808-0.155,1.621-0.215,2.432
						c-0.133,1.796-0.226,3.596-0.338,5.393c-0.108,1.74-0.211,3.48-0.309,5.22c-0.091,1.599-0.383,3.355-0.209,4.96
						c-0.04,0.059-0.073,0.128-0.094,0.208c-0.732,2.729-1.357,5.507-1.705,8.313c-0.336,2.7-0.701,5.633-0.349,8.346
						c0.002,0.015,0.009,0.028,0.015,0.041c-0.159,2.661,0.057,5.386,0.167,8.033c0.063,1.511,0.126,3.021,0.189,4.532
						c0.061,1.468-0.051,3.101,0.386,4.515c0.056,0.181,0.175,0.302,0.317,0.368c-0.734,5.322-1.061,10.691-1.592,16.039
						c-0.584,5.881-1.24,11.758-2.002,17.62c-0.433,3.334-0.887,6.665-1.438,9.981c-0.043,0.256,0.074,0.44,0.255,0.547
						c-0.566,1.601-0.814,3.384-1.099,5.01c-0.384,2.191-0.713,4.392-0.987,6.6c-0.546,4.399-0.91,8.862-0.925,13.296
						c-0.001,0.289,0.153,0.497,0.365,0.617c-0.216,1.104-0.029,2.275,0.144,3.37c0.221,1.394,0.553,2.775,0.949,4.129
						c0.077,0.263,0.305,0.396,0.546,0.421c-0.002,0.167,0.115,0.336,0.361,0.369c6.275,0.85,12.668,1.131,18.983,1.552
						c6.334,0.423,12.669,0.827,19.005,1.207c12.73,0.764,25.465,1.471,38.205,2.061c7.149,0.332,14.315,0.752,21.472,0.855
						C218.426,285.663,218.535,284.251,217.498,284.194z"/>
				</g>
				<g>
					<path style="fill:#434244;" d="M239.052,274.287c0.091-0.092,0.156-0.217,0.179-0.376c0.422-2.968,0.388-6.05,0.532-9.044
						c0.142-2.959,0.285-5.917,0.427-8.876c0.143-2.959,0.277-5.918,0.389-8.879c0.11-2.892,0.339-5.863,0.015-8.743
						c-0.006-0.052-0.104-0.06-0.116-0.007c-0.646,2.822-0.755,5.798-0.972,8.681c-0.223,2.954-0.423,5.908-0.615,8.864
						c-0.192,2.955-0.385,5.911-0.577,8.867c-0.195,2.991-0.575,6.05-0.492,9.047c0.007,0.235,0.116,0.409,0.269,0.521
						c-3.398,1.521-6.636,3.481-9.91,5.25c-1.64,0.886-3.269,1.793-4.902,2.691c-1.663,0.915-3.418,1.77-4.968,2.87
						c-0.578,0.41,0.129,1.088,0.66,0.878c1.779-0.703,3.464-1.709,5.151-2.604c1.698-0.901,3.4-1.797,5.091-2.711
						c3.316-1.792,6.769-3.444,9.925-5.505C239.559,274.936,239.388,274.502,239.052,274.287z"/>
				</g>
				<g>
					<path style="fill:#434244;" d="M241.966,235.334c0.04-0.753,0.058-1.507,0.085-2.26c0.054-1.508,0.106-3.015,0.134-4.523
						c0.056-3.018,0.106-6.036,0.139-9.054c0.066-6.096,0.127-12.192,0.184-18.289c0.016-1.684,0.031-3.368,0.047-5.051
						c0.016-1.676,0.129-3.382-0.013-5.052c-0.009-0.101-0.041-0.184-0.087-0.254c0.116-6.638-0.171-13.286-0.392-19.919
						c-0.226-6.796-0.454-13.592-0.682-20.387c-0.064-1.917-0.129-3.833-0.193-5.75c-0.064-1.897,0.017-3.873-0.288-5.749
						c-0.116-0.713-1.309-0.628-1.373,0.078c-0.154,1.717,0.049,3.502,0.115,5.224c0.065,1.685,0.131,3.37,0.196,5.055
						c0.133,3.428,0.266,6.856,0.399,10.284c0.264,6.799,0.493,13.6,0.821,20.396c0.169,3.517,0.344,7.032,0.648,10.54
						c-0.284,0.064-0.538,0.258-0.569,0.563c-0.155,1.491-0.07,3.027-0.083,4.526c-0.013,1.51-0.027,3.019-0.04,4.529
						c-0.027,3.019-0.053,6.039-0.08,9.058c-0.054,6.098-0.104,12.196-0.102,18.294c0.001,1.687,0.016,3.371,0.046,5.057
						c0.014,0.814,0.019,1.629,0.043,2.443c0.011,0.385,0.01,0.78,0.058,1.162c0.06,0.479,0.334,0.835,0.421,1.315
						c0.005,0.03,0.049,0.023,0.054-0.003c0.072-0.361,0.293-0.675,0.395-1.02C241.96,236.168,241.946,235.722,241.966,235.334z"/>
				</g>
			</g>
			<g>
				<path style="fill:#434244;" d="M221.601,78.378c-0.954-2.267-2.932-4.386-5.552-4.46c-1.743-0.049-4.169,1.26-3.973,3.192
					c-0.229,0.008-0.435,0.142-0.412,0.417c0.21,2.488,0.581,4.803,0.259,7.313c-0.318,2.486-1.07,4.914-2.056,7.213
					c-2.05,4.781-5.211,8.953-8.593,12.864c-6.384,7.381-13.802,14.387-16.483,24.095c-1.266,4.583-1.622,10.313,0.986,14.524
					c0.041,0.066,0.166,0.028,0.142-0.054c-0.693-2.339-1.314-4.588-1.339-7.053c-0.025-2.437,0.365-4.873,1.049-7.209
					c1.412-4.815,4.061-9.062,7.153-12.97c6.145-7.768,13.965-14.307,18.056-23.529c1.057-2.384,1.842-4.891,2.211-7.476
					c0.356-2.499,0.499-5.442-0.439-7.833c-0.026-0.068-0.071-0.123-0.125-0.168c0.508-0.896,1.137-1.769,2.113-2.177
					c1.527-0.638,3.214,0.018,4.363,1.086c2.106,1.959,2.626,5.282,2.847,8.01c0.449,5.544-0.897,11.099-3.855,15.809
					c-5.595,8.906-15.331,14.535-19.807,24.245c-2.28,4.946-2.786,10.76-0.166,15.675c0.361,0.677,1.552,0.125,1.155-0.608
					c-2.87-5.304-1.696-11.874,1.188-16.912c2.962-5.175,7.426-9.227,11.535-13.464c3.913-4.035,7.632-8.408,9.544-13.778
					C223.231,89.995,223.759,83.506,221.601,78.378z"/>
			</g>
			<g>
				<path style="fill:#434244;" d="M187.836,130.257c-0.002-0.008-0.016-0.006-0.015,0.002c0.216,1.453,0.444,2.896,0.72,4.339
					c0.017,0.088,0.166,0.054,0.15-0.037C188.441,133.117,188.146,131.689,187.836,130.257z"/>
			</g>
			<g>
				<path style="fill:#434244;" d="M190.092,134.846c-0.288-1.053-0.616-2.083-0.963-3.117c-0.017-0.051-0.103-0.033-0.09,0.022
					c0.252,1.06,0.517,2.106,0.828,3.151C189.905,135.03,190.129,134.982,190.092,134.846z"/>
			</g>
			<g>
				<path style="fill:#434244;" d="M191.643,135.918c-0.409-1.258-0.879-2.494-1.335-3.735c-0.021-0.058-0.126-0.037-0.105,0.026
					c0.424,1.251,0.834,2.508,1.306,3.742C191.536,136.026,191.669,135.999,191.643,135.918z"/>
			</g>
			<g>
				<path style="fill:#434244;" d="M192.77,135.445c-0.319-1.054-0.709-2.088-1.075-3.126c-0.029-0.084-0.178-0.053-0.15,0.037
					c0.33,1.049,0.639,2.108,1.015,3.141C192.602,135.613,192.809,135.572,192.77,135.445z"/>
			</g>
			<g>
				<path style="fill:#434244;" d="M195.106,121.905c0.011-0.046-0.061-0.061-0.075-0.019c-1.421,4.314-1.783,9.037-0.773,13.483
					c0.04,0.174,0.379,0.142,0.351-0.043C193.936,130.797,194.003,126.366,195.106,121.905z"/>
			</g>
			<g>
				<path style="fill:#434244;" d="M195.025,126.218c-0.001-0.1-0.169-0.101-0.171,0c-0.052,2.784-0.153,5.572-0.098,8.357
					c0.003,0.155,0.259,0.155,0.264,0C195.109,131.791,195.042,129.002,195.025,126.218z"/>
			</g>
			<g>
				<path style="fill:#434244;" d="M195.69,127.116c-0.007-0.108-0.188-0.11-0.187,0c0.035,2.307-0.111,4.728,0.215,7.014
					c0.028,0.194,0.33,0.207,0.342,0C196.198,131.823,195.848,129.419,195.69,127.116z"/>
			</g>
			<g>
				<path style="fill:#434244;" d="M196.622,129.8c-0.017-0.262-0.455-0.266-0.451,0c0.019,1.293,0.037,2.587,0.056,3.88
					c0.006,0.376,0.661,0.371,0.638,0C196.783,132.387,196.702,131.093,196.622,129.8z"/>
			</g>
			<g>
				<path style="fill:#434244;" d="M202.132,111.916c-1.619,2.82-3.27,5.623-4.804,8.491c-0.109,0.204,0.212,0.355,0.322,0.17
					c1.659-2.796,3.203-5.66,4.777-8.505C202.531,111.885,202.23,111.744,202.132,111.916z"/>
			</g>
			<g>
				<path style="fill:#434244;" d="M202.775,113.283c-1.458,2.245-2.973,4.474-4.266,6.819c-0.164,0.297,0.297,0.508,0.47,0.247
					c1.482-2.226,2.76-4.593,4.078-6.918C203.158,113.254,202.878,113.125,202.775,113.283z"/>
			</g>
			<g>
				<path style="fill:#434244;" d="M202.727,116.693c-0.455,0.657-0.904,1.318-1.35,1.98c0.599-1.135,1.156-2.301,1.748-3.413
					c0.131-0.247-0.26-0.431-0.389-0.205c-1.076,1.875-2.329,3.733-3.217,5.704c-0.132,0.293,0.374,0.429,0.526,0.2
					c0.16-0.241,0.314-0.487,0.464-0.736c0.098,0.116,0.327,0.149,0.438-0.007c0.766-1.082,1.512-2.176,2.252-3.276
					C203.387,116.658,202.904,116.437,202.727,116.693z"/>
			</g>
			<g>
				<path style="fill:#434244;" d="M196.598,111.347c-1.775,2.03-3.683,4.113-5.171,6.363c-0.109,0.165,0.157,0.329,0.281,0.195
					c1.828-1.978,3.404-4.315,4.951-6.516C196.684,111.354,196.624,111.317,196.598,111.347z"/>
			</g>
			<g>
				<path style="fill:#434244;" d="M196.469,111.791c-1.653,2.53-3.262,5.087-4.854,7.656c-0.179,0.288,0.313,0.518,0.47,0.247
					c1.515-2.605,3.012-5.22,4.464-7.861C196.577,111.782,196.498,111.746,196.469,111.791z"/>
			</g>
			<g>
				<path style="fill:#434244;" d="M197.644,112.646c-1.196,1.702-2.547,3.372-3.592,5.17c-0.114,0.196,0.187,0.323,0.309,0.163
					c1.252-1.651,2.27-3.532,3.377-5.284C197.775,112.638,197.68,112.595,197.644,112.646z"/>
			</g>
			<g>
				<path style="fill:#434244;" d="M198.945,112.43c-0.893,1.122-1.56,2.475-2.291,3.706c-0.054,0.092,0.096,0.162,0.148,0.078
					c0.751-1.223,1.639-2.439,2.214-3.757C199.034,112.415,198.967,112.403,198.945,112.43z"/>
			</g>
			<g>
				<path style="fill:#434244;" d="M186.129,125.34c0.005-0.04-0.069-0.048-0.076-0.009c-0.663,3.481-1.321,6.962-1.811,10.471
					c-0.022,0.159,0.277,0.192,0.306,0.037c0.355-1.927,0.657-3.862,0.936-5.801c0.122,1.847,0.264,3.688,0.443,5.531
					c0.008,0.081,0.146,0.082,0.14,0c-0.137-1.996-0.317-3.983-0.52-5.973C185.749,128.179,185.94,126.76,186.129,125.34z"/>
			</g>
			<g>
				<path style="fill:#434244;" d="M186.039,129.596c-0.006-0.053-0.097-0.055-0.093,0c0.12,1.824,0.18,3.664,0.428,5.476
					c0.018,0.131,0.24,0.14,0.233,0C186.524,133.241,186.25,131.416,186.039,129.596z"/>
			</g>
			<g>
				<path style="fill:#434244;" d="M188.549,136.549c-0.319-1.332-0.666-2.654-1.018-3.977c-0.014-0.052-0.103-0.032-0.09,0.022
					c0.312,1.333,0.628,2.663,0.973,3.988C188.434,136.66,188.569,136.631,188.549,136.549z"/>
			</g>
			<g>
				<path style="fill:#434244;" d="M190.291,148.354c-0.894-2.911-2.213-5.708-3.387-8.514c-0.02-0.048-0.109-0.032-0.09,0.022
					c1.004,2.863,1.898,5.812,3.177,8.567C190.063,148.584,190.348,148.541,190.291,148.354z"/>
			</g>
			<g>
				<path style="fill:#434244;" d="M190.927,147.551c-0.782-2.199-1.819-4.337-2.734-6.484c-0.014-0.032-0.074-0.02-0.06,0.015
					c0.854,2.166,1.615,4.408,2.599,6.517C190.779,147.7,190.969,147.67,190.927,147.551z"/>
			</g>
			<g>
				<path style="fill:#434244;" d="M192.125,146.987c-0.575-1.704-1.539-3.376-2.399-4.948c-0.019-0.034-0.085-0.013-0.071,0.027
					c0.602,1.685,1.213,3.503,2.101,5.062C191.855,147.302,192.196,147.197,192.125,146.987z"/>
			</g>
			<g>
				<path style="fill:#434244;" d="M193.628,146.433c-0.576-1.129-1.388-2.138-2.119-3.169c-0.031-0.044-0.108-0.009-0.081,0.042
					c0.588,1.112,1.12,2.285,1.864,3.303C193.423,146.79,193.738,146.651,193.628,146.433z"/>
			</g>
			<g>
				<path style="fill:#434244;" d="M195.788,145.274c-0.967-2.319-2.373-4.51-3.57-6.718c-0.013-0.024-0.053-0.005-0.04,0.021
					c1.075,2.256,2.015,4.675,3.312,6.811C195.571,145.522,195.857,145.441,195.788,145.274z"/>
			</g>
			<g>
				<path style="fill:#434244;" d="M197.422,144.41c-0.762-1.493-2.01-2.883-3.04-4.203c-0.139-0.178-0.488-0.034-0.349,0.184
					c0.911,1.434,1.809,3.066,2.974,4.308C197.199,144.904,197.551,144.663,197.422,144.41z"/>
			</g>
			<g>
				<path style="fill:#434244;" d="M199.372,145.427c-1.153-1.756-2.732-3.348-4.137-4.909c-0.031-0.035-0.103,0.008-0.073,0.051
					c1.209,1.71,2.414,3.585,3.869,5.095C199.182,145.822,199.507,145.632,199.372,145.427z"/>
			</g>
			<g>
				<path style="fill:#434244;" d="M201.566,147.194c-0.947-1.525-2.04-2.967-3.074-4.434c-0.041-0.058-0.149-0.01-0.107,0.057
					c0.953,1.513,1.86,3.071,2.9,4.526C201.391,147.493,201.674,147.369,201.566,147.194z"/>
			</g>
			<g>
				<path style="fill:#434244;" d="M210.625,96.996c-1.026,2.227-2.12,4.436-3.042,6.708c-0.047,0.116,0.162,0.187,0.213,0.081
					c1.066-2.211,1.97-4.505,2.933-6.763C210.756,96.961,210.651,96.94,210.625,96.996z"/>
			</g>
			<g>
				<path style="fill:#434244;" d="M209.279,98.557c-1.081,1.866-2.157,3.724-3.121,5.654c-0.086,0.171,0.179,0.299,0.269,0.141
					c1.067-1.875,2.011-3.803,2.959-5.739C209.42,98.545,209.315,98.494,209.279,98.557z"/>
			</g>
			<g>
				<path style="fill:#434244;" d="M207.365,99.959c-0.246,0.373-0.493,0.744-0.74,1.116c0.008-0.102-0.13-0.186-0.218-0.096
					c-1.268,1.309-2.529,2.615-3.74,3.977c-0.131,0.147,0.092,0.329,0.22,0.198c1.252-1.279,2.446-2.604,3.642-3.935
					c-0.652,0.98-1.303,1.961-1.929,2.957c-0.047,0.074,0.076,0.13,0.121,0.063c0.929-1.398,1.811-2.828,2.711-4.245
					C207.458,99.953,207.389,99.922,207.365,99.959z"/>
			</g>
			<g>
				<path style="fill:#434244;" d="M203.881,102.934c-0.426,0.405-0.852,0.81-1.277,1.215c-0.087,0.082,0.057,0.198,0.132,0.119
					c0.404-0.425,0.808-0.85,1.212-1.274C203.988,102.95,203.92,102.896,203.881,102.934z"/>
			</g>
			<g>
				<path style="fill:#434244;" d="M219.423,95.537c-1.426,2.641-2.946,5.252-4.249,7.955c-0.062,0.129,0.134,0.224,0.201,0.106
					c1.483-2.609,2.767-5.344,4.128-8.019C219.53,95.528,219.449,95.489,219.423,95.537z"/>
			</g>
			<g>
				<path style="fill:#434244;" d="M217.294,97.705c-1.409,1.926-2.866,3.827-4.205,5.803c0.649-0.978,1.294-1.959,1.928-2.949
					c0.094-0.147-0.152-0.26-0.242-0.127c-1.006,1.488-1.988,2.988-2.96,4.498c-0.095,0.147,0.152,0.26,0.242,0.127
					c0.313-0.465,0.622-0.932,0.932-1.399c-0.078,0.146,0.165,0.249,0.261,0.12c1.454-1.953,2.788-4.001,4.164-6.009
					C217.465,97.696,217.341,97.64,217.294,97.705z"/>
			</g>
			<g>
				<path style="fill:#434244;" d="M212.891,101.488c-0.684,0.984-1.385,1.958-2.037,2.963c-0.074,0.114,0.118,0.202,0.188,0.099
					c0.674-0.986,1.301-2.005,1.943-3.012C213.021,101.479,212.926,101.437,212.891,101.488z"/>
			</g>
			<g>
				<path style="fill:#434244;" d="M212.384,100.975c-0.806,0.882-1.642,1.744-2.403,2.665c-0.177,0.215,0.227,0.402,0.39,0.205
					c0.744-0.901,1.415-1.865,2.111-2.802C212.523,100.987,212.426,100.929,212.384,100.975z"/>
			</g>
			<g>
				<path style="fill:#434244;" d="M213.627,82.861c-0.978,3.599-2.051,7.225-2.697,10.901c-0.041,0.236,0.324,0.325,0.39,0.097
					c1.045-3.584,1.684-7.313,2.397-10.976C213.727,82.828,213.641,82.808,213.627,82.861z"/>
			</g>
			<g>
				<path style="fill:#434244;" d="M214.273,84.816c-0.443,2.396-1.032,4.813-1.29,7.237c-0.015,0.145,0.244,0.171,0.275,0.034
					c0.53-2.376,0.745-4.852,1.092-7.261C214.355,84.785,214.28,84.777,214.273,84.816z"/>
			</g>
			<g>
				<path style="fill:#434244;" d="M215.487,84.307c-0.22,2.215-0.612,4.495-0.597,6.722c0.001,0.149,0.268,0.188,0.29,0.035
					c0.331-2.21,0.271-4.525,0.368-6.757C215.551,84.27,215.491,84.271,215.487,84.307z"/>
			</g>
			<g>
				<path style="fill:#434244;" d="M216.363,85.293c-0.004-0.054-0.094-0.055-0.093,0c0.03,1.643-0.064,3.347,0.138,4.978
					c0.022,0.177,0.307,0.187,0.311,0C216.76,88.625,216.496,86.935,216.363,85.293z"/>
			</g>
			<g>
				<path style="fill:#434244;" d="M218.229,89.74c-0.249-1.169-0.714-2.325-1.078-3.464c-0.016-0.051-0.104-0.033-0.09,0.022
					c0.292,1.158,0.508,2.382,0.913,3.505C218.025,89.946,218.262,89.896,218.229,89.74z"/>
			</g>
			<g>
				<path style="fill:#434244;" d="M217.492,81.276c-0.019-0.07-0.134-0.043-0.12,0.03c0.596,3.152,1.026,6.457,2.027,9.511
					c0.072,0.22,0.51,0.201,0.474-0.058C219.421,87.557,218.352,84.387,217.492,81.276z"/>
			</g>
			<g>
				<path style="fill:#434244;" d="M218.445,81.288c-0.008-0.035-0.067-0.022-0.06,0.015c0.62,3.047,0.891,6.282,1.8,9.255
					c0.051,0.166,0.374,0.148,0.351-0.043C220.167,87.415,219.109,84.337,218.445,81.288z"/>
			</g>
			<g>
				<path style="fill:#434244;" d="M219.616,80.762c-0.008-0.044-0.082-0.027-0.075,0.019c0.425,2.716,0.491,5.622,1.2,8.279
					c0.062,0.232,0.493,0.197,0.474-0.058C221.008,86.253,220.111,83.476,219.616,80.762z"/>
			</g>
			<g>
				<path style="fill:#434244;" d="M220.401,81.045c-0.013-0.061-0.129-0.05-0.122,0.015c0.213,2.146,0.354,4.418,0.9,6.511
					c0.041,0.159,0.329,0.133,0.321-0.039C221.393,85.366,220.844,83.161,220.401,81.045z"/>
			</g>
			<g>
				<path style="fill:#434244;" d="M221.633,81.558c-0.007-0.053-0.096-0.056-0.093,0c0.103,1.826,0.181,3.655,0.358,5.476
					c0.021,0.216,0.392,0.218,0.373,0C222.116,85.202,221.861,83.381,221.633,81.558z"/>
			</g>
		</g>
	</g>
</g>
</svg>
